<?xml version="1.0" encoding="iso-8859-1"?>
<!-- Generator: Adobe Illustrator 21.0.0, SVG Export Plug-In . SVG Version: 6.00 Build 0)  -->
<svg xmlns="http://www.w3.org/2000/svg" xmlns:xlink="http://www.w3.org/1999/xlink" version="1.1" id="Capa_1" x="0px" y="0px" viewBox="0 0 512 512" style="enable-background:new 0 0 512 512;" xml:space="preserve" width="512" height="512">
<g>
	<path style="fill:#626169;" d="M140.823,107.54c29.117,2.311,54.033-20.63,54.033-49.86V25.007   C166.158,42.772,145.76,72.67,140.823,107.54z"/>
	<g>
		<path style="fill:#FFDAAA;" d="M372.335,123.993v134.326c-28.529,28.529-44.525,44.525-73.054,73.054h-86.558    c-28.529-28.529-44.525-44.525-73.054-73.054V123.993c0-64.249,52.084-116.333,116.333-116.333    C320.215,7.66,372.335,59.71,372.335,123.993z"/>
		<path style="fill:#626169;" d="M370.053,100.954C354.038,21.241,263.108-17.242,194.857,25.007v31.972    c0,24.287,19.688,43.975,43.975,43.975H370.053z"/>
		<path style="fill:#626169;" d="M140.823,107.54c29.117,2.311,54.033-20.63,54.033-49.86V25.007    C166.158,42.772,145.76,72.67,140.823,107.54z"/>
		<path style="fill:#80EDD4;" d="M333.05,297.604V216.42H178.953v81.184c10.232,10.232,20.681,20.681,33.769,33.769h86.558    C312.368,318.285,322.818,307.836,333.05,297.604z"/>
		<path style="fill:#4092F2;" d="M478.634,352.285H334.65l-78.65,42.8l-78.65-42.8H33.366L7.502,378.149v126.185    c14.011,0,482.98,0,496.997,0V378.149L478.634,352.285z"/>
		<path style="fill:#FFDAAA;" d="M334.654,352.285v-55.996c-10.311,10.31-20.889,20.888-34.061,34.06h-89.182l-34.061-34.061v55.997    l78.65,42.8L334.654,352.285z"/>
	</g>
	<g>
		<path style="fill:#FFB680;" d="M159.668,258.319V123.993c0-60.879,46.767-110.828,106.333-115.901    c-68.115-5.801-126.333,47.81-126.333,115.901v134.326c28.529,28.529,44.525,44.525,73.054,73.054h20    C204.193,302.844,188.198,286.848,159.668,258.319z"/>
		<path style="fill:#4D4C50;" d="M214.857,56.979V25.007c15.119-9.359,32.546-15.334,51.226-16.912    c-25.103-2.155-49.941,3.737-71.226,16.912v31.972c0,24.287,19.688,43.975,43.975,43.975h20    C234.545,100.954,214.857,81.266,214.857,56.979z"/>
		<path style="fill:#4D4C50;" d="M194.857,40.637v-15.63c-28.699,17.766-49.097,47.663-54.033,82.533    c6.806,0.54,13.722-0.284,20.406-2.603C165.354,79.909,177.462,57.574,194.857,40.637z"/>
		<path style="fill:#00DBA8;" d="M198.953,216.419h-20v81.185c10.232,10.232,20.681,20.681,33.769,33.769h20    c-13.088-13.088-23.537-23.537-33.769-33.769V216.419z"/>
		<g>
			<polygon style="fill:#006DEE;" points="276,395.085 354.65,352.285 334.65,352.285 266,389.644    "/>
			<polygon style="fill:#006DEE;" points="53.366,352.285 33.366,352.285 7.502,378.149 7.502,504.334 27.502,504.334      27.502,378.149    "/>
		</g>
		<g>
			<g>
				<path style="fill:#FFB680;" d="M334.654,316.288v-19.999c-10.311,10.31-20.889,20.888-34.061,34.06h20      C325.615,325.327,330.258,320.685,334.654,316.288z"/>
				<polygon style="fill:#FFB680;" points="197.35,352.285 197.35,316.288 177.35,296.288 177.35,352.285 256,395.085 266,389.644           "/>
			</g>
		</g>
	</g>
	<g>
		<rect x="216.335" y="246.582" width="79.333" height="15"/>
		<rect x="216.335" y="280.246" width="79.333" height="15"/>
		<polygon points="481.735,344.787 423.5,344.787 423.5,359.787 475.524,359.787 497,381.255 497,496.837 426.992,496.837     426.992,428.31 411.992,428.31 411.992,496.837 157.36,496.837 157.36,511.837 512,511.837 512,375.04   "/>
		<path d="M100.008,428.31h-15v68.527H15V381.255l21.476-21.468h138.966L256,403.626l80.559-43.839H403.5v-15h-61.346v-45.681    l37.681-37.681V123.993c0-66.811-53.504-122.389-121.32-123.805c-33.692-0.674-65.43,12.236-88.993,35.252    c-15.932,14.276-26.152,30.803-31.495,50.882c-3.803,11.884-5.86,24.542-5.86,37.672v137.432l37.682,37.682v45.681H30.265    L0,375.04v136.797h137.36v-15h-37.353V428.31z M303.699,337.849l23.455-23.454v33.433c-9.124,4.965-60.475,32.908-71.154,38.719    l-71.15-38.719v-33.434c25.21,25.208,23.311,23.454,23.742,23.454l1.024,1.024h92.771    C303.591,337.67,303.316,337.849,303.699,337.849z M147.628,114.031c17.997-4.122,37.35-14.22,47.352-30.122    c9.07,14.715,25.333,24.545,43.851,24.545h124.889c1.578,10.993,1.114,14.813,1.114,69.846l-36.086,30.619H183.255l-36.087-30.62    C147.168,119.021,147.01,120.812,147.628,114.031z M187.356,40.178V57.68c0,24.568-23.008,35.589-36.526,39.937    C154.568,77.983,168.335,54.507,187.356,40.178z M359.498,93.454H238.832c-20.112,0-36.476-16.363-36.476-36.476V30.264    C266.882-6.836,340.673,28.619,359.498,93.454z M186.453,223.919H325.55v70.578l-28.351,28.352h-82.395l-28.352-28.352V223.919z     M340.55,279.498v-60.919l24.285-20.606v57.24L340.55,279.498z M147.168,197.972l24.285,20.606v60.92l-24.285-24.285V197.972z"/>
	</g>
	<g>
		<path style="fill:#FFFFFF;" d="M278.962,461.497h-15v-15h15V461.497z M253.962,461.497h-15v-15h15V461.497z"/>
	</g>
</g>















</svg>
